# xmcd
#
# Track frame offsets: 
#        150
#        18150
#        34585
#        56710
#        67950
#        85285
#        96450
#        112725
#        129525
#        146925
#        162900
#        181425
#        194025
#        209250
#        228610
#        244200
#
# Disc length: 3472 seconds
#
# Revision: 1
# Processed by: cddbd v1.5.2PL0 Copyright (c) Steve Scherf et al.
# Submitted via: ExactAudioCopy v0.99pb5
#
DISCID=e80d8e10
DTITLE=Lita Branda y Melcochita - The first family of salsa
DYEAR=2004
DGENRE=Salsa
TTITLE0=Con  azúcar para Celia
TTITLE1=Mis Raices
TTITLE2=El chismoso
TTITLE3=Para cantar un son
TTITLE4=No te metas
TTITLE5=Rosa
TTITLE6=Navidad del niño
TTITLE7=La ultima serenata
TTITLE8=Flor sin retoño
TTITLE9=Don Porfirio
TTITLE10=Mi Barrio
TTITLE11=Pena
TTITLE12=Saca la mano
TTITLE13=Animo y aliento
TTITLE14=El lechero
TTITLE15=Mi bongo en la habana
EXTD=YEAR: 2004
EXTT0=
EXTT1=
EXTT2=
EXTT3=
EXTT4=
EXTT5=
EXTT6=
EXTT7=
EXTT8=
EXTT9=
EXTT10=
EXTT11=
EXTT12=
EXTT13=
EXTT14=
EXTT15=
PLAYORDER=
